<?xml version="1.0" standalone="no"?>

<svg version="1.0" xmlns="http://www.w3.org/2000/svg"
 width="206.000000pt" height="232.000000pt" viewBox="0 0 206.000000 232.000000"
 preserveAspectRatio="xMidYMid meet">

<g>
<path d="M990 2020 c-8 -11 -21 -20 -28 -20 -8 0 -27 -13 -42 -30 -15 -16 -33
-30 -40 -30 -7 0 -25 -13 -40 -30 -15 -16 -34 -30 -42 -30 -7 0 -20 -9 -28
-20 -8 -11 -21 -20 -28 -20 -8 0 -27 -13 -42 -30 -15 -16 -33 -30 -40 -30 -7
0 -25 -13 -40 -30 -15 -16 -33 -30 -40 -30 -7 0 -25 -13 -40 -30 -15 -16 -33
-30 -40 -30 -39 0 -40 -8 -40 -540 l0 -511 25 -24 c13 -14 29 -25 36 -25 6 0
24 -13 39 -30 15 -16 33 -30 40 -30 7 0 25 -14 40 -30 15 -16 33 -30 40 -30 7
0 25 -13 40 -30 15 -16 33 -30 40 -30 7 0 25 -13 40 -30 15 -16 34 -30 42 -30
7 0 20 -9 28 -20 8 -11 21 -20 28 -20 8 0 27 -13 42 -30 15 -16 35 -30 43 -30
9 0 18 -6 21 -12 5 -11 7 -11 12 0 3 6 12 12 21 12 8 0 28 14 43 30 15 17 33
30 40 30 7 0 25 13 40 30 15 16 33 30 40 30 7 0 25 14 40 30 15 17 33 30 40
30 7 0 25 13 40 30 15 16 34 30 42 30 7 0 20 9 28 20 8 11 21 20 28 20 8 0 27
14 42 30 15 17 33 30 39 30 7 0 23 11 36 25 l25 24 0 511 c0 532 -1 540 -40
540 -7 0 -25 14 -40 30 -15 17 -34 30 -42 30 -7 0 -20 9 -28 20 -8 11 -21 20
-28 20 -8 0 -27 14 -42 30 -15 17 -33 30 -40 30 -7 0 -25 14 -40 30 -15 17
-33 30 -40 30 -7 0 -25 14 -40 30 -15 17 -33 30 -40 30 -7 0 -25 14 -40 30
-15 17 -34 30 -42 30 -7 0 -20 9 -28 20 -8 11 -17 20 -20 20 -3 0 -12 -9 -20
-20z m45 -105 c14 -13 25 -29 25 -36 0 -6 14 -24 30 -39 17 -15 30 -35 30 -44
0 -9 5 -16 10 -16 6 0 10 -7 10 -16 0 -9 14 -29 30 -44 17 -15 30 -35 30 -44
0 -9 5 -16 10 -16 6 0 10 -4 10 -10 0 -6 -77 -10 -210 -10 -195 0 -210 1 -210
18 0 10 9 24 20 32 11 8 20 21 20 28 0 8 14 27 30 42 17 15 30 34 30 42 0 7 9
20 20 28 11 8 20 20 20 27 0 11 57 80 68 82 2 1 14 -10 27 -24z m-175 -73 c0
-10 -9 -24 -20 -32 -11 -8 -20 -21 -20 -30 0 -9 -9 -22 -20 -30 -11 -8 -20
-20 -20 -28 0 -7 -16 -28 -35 -47 -32 -33 -38 -35 -100 -35 -36 0 -65 2 -65 5
0 12 50 55 62 55 8 0 20 9 28 20 8 11 21 20 28 20 8 0 27 14 42 30 15 17 34
30 42 30 7 0 24 14 38 30 29 34 40 37 40 12z m340 -12 c15 -16 33 -30 40 -30
7 0 25 -13 40 -30 15 -16 33 -30 40 -30 7 0 25 -13 40 -30 15 -16 33 -30 40
-30 12 0 40 -24 40 -34 0 -3 -34 -6 -76 -6 -76 0 -104 11 -104 42 0 8 -9 20
-20 28 -11 8 -20 21 -20 30 0 9 -9 22 -20 30 -11 8 -20 21 -20 30 0 9 -9 22
-20 30 -24 17 -26 30 -4 30 9 0 29 -13 44 -30z m-480 -720 l0 -470 -96 0 c-69
0 -99 4 -110 14 -12 12 -14 89 -14 470 l0 456 110 0 110 0 0 -470z m520 0 l0
-470 -226 0 c-182 0 -228 3 -240 14 -12 12 -14 89 -14 470 l0 456 240 0 240 0
0 -470z m280 14 c0 -381 -2 -458 -14 -470 -10 -10 -39 -14 -96 -14 -57 0 -86
4 -96 14 -12 12 -14 89 -14 470 l0 456 110 0 110 0 0 -456z m-780 -542 c0 -10
9 -24 20 -32 11 -8 20 -21 20 -30 0 -9 9 -22 20 -30 11 -8 20 -21 20 -30 0 -9
9 -22 20 -30 11 -8 20 -22 20 -31 0 -10 6 -19 13 -22 6 -2 9 -8 5 -12 -4 -4
-21 6 -37 24 -16 17 -34 31 -41 31 -7 0 -25 14 -40 30 -15 17 -34 30 -42 30
-7 0 -20 9 -28 20 -8 11 -20 20 -28 20 -12 0 -82 63 -82 75 0 3 36 5 80 5 70
0 80 -2 80 -18z m480 0 c0 -10 -9 -24 -20 -32 -11 -8 -20 -21 -20 -30 0 -9 -9
-22 -20 -30 -11 -8 -20 -21 -20 -28 0 -8 -13 -27 -30 -42 -16 -15 -30 -34 -30
-42 0 -7 -9 -20 -20 -28 -11 -8 -20 -20 -20 -28 0 -7 -7 -20 -15 -28 -13 -14
-17 -14 -30 0 -8 8 -15 21 -15 28 0 8 -9 20 -20 28 -11 8 -20 21 -20 30 0 9
-9 22 -20 30 -11 8 -20 21 -20 28 0 8 -13 27 -30 42 -16 15 -30 35 -30 44 0 9
-4 16 -10 16 -5 0 -10 9 -10 20 0 11 -4 20 -10 20 -5 0 -10 5 -10 10 0 6 77
10 210 10 195 0 210 -1 210 -18z m220 13 c0 -11 -49 -55 -61 -55 -6 0 -24 -13
-39 -30 -15 -16 -33 -30 -40 -30 -7 0 -25 -13 -40 -30 -15 -16 -34 -30 -42
-30 -7 0 -20 -9 -28 -20 -8 -11 -18 -20 -22 -20 -16 0 -7 36 12 50 11 8 20 21
20 28 0 8 14 27 30 42 17 15 30 33 30 39 0 7 10 23 23 36 19 20 32 24 90 24
37 1 67 -1 67 -4z"/>
</g>
</svg>
